USFL
nRows=243
nColumns=2
inDegrees=yes
endheader
time	tib_ant_r	
3.39293	 61.269848	
3.42619	 61.282277	
3.45946	 61.327096	
3.49272	 61.363235	
3.52598	 61.393480	
3.55925	 61.390676	
3.59251	 61.390057	
3.62578	 61.365550	
3.65904	 61.374956	
3.6923	 61.368394	
3.72557	 61.376719	
3.75883	 61.304966	
3.7921	 61.251460	
3.82536	 61.258171	
3.85862	 61.252620	
3.89189	 61.243118	
3.92515	 61.230568	
3.95842	 61.209813	
3.99168	 61.199928	
4.02494	 61.193268	
4.05821	 61.136693	
4.09147	 61.058682	
4.12474	 60.919998	
4.158	 60.896426	
4.19126	 60.954893	
4.22453	 60.947546	
4.25779	 60.955781	
4.29106	 60.958375	
4.32432	 61.015932	
4.35758	 60.960194	
4.39085	 60.945332	
4.42411	 60.915139	
4.45738	 60.929110	
4.49064	 60.948435	
4.5239	 60.986703	
4.55717	 61.015296	
4.59043	 56.680939	
4.6237	 56.666365	
4.65696	 56.785973	
4.69022	 56.789745	
4.72349	 56.549290	
4.75675	 56.535089	
4.79002	 56.398963	
4.82328	 56.548504	
4.85654	 56.339034	
4.88981	 56.477749	
4.92307	 56.366919	
4.95634	 56.335111	
4.9896	 56.520298	
5.02286	 56.473670	
5.05613	 56.498127	
5.08939	 56.649157	
5.12266	 56.543332	
5.15592	 56.648551	
5.18918	 56.777759	
5.22245	 56.768916	
5.25571	 56.920889	
5.28898	 56.910451	
5.32224	 56.839657	
5.3555	 56.958750	
5.38877	 56.886808	
5.42203	 56.825776	
5.4553	 56.954120	
5.48856	 56.985326	
5.52182	 57.018182	
5.55509	 57.169514	
5.58835	 57.198660	
5.62162	 57.206940	
5.65488	 57.206367	
5.68814	 57.246752	
5.72141	 57.283960	
5.75467	 57.322188	
5.78794	 57.332733	
5.8212	 57.387940	
5.85446	 57.382299	
5.88773	 57.389235	
5.92099	 57.412223	
5.95426	 57.365921	
5.98752	 57.477361	
6.02078	 57.521205	
6.05405	 57.583506	
6.08731	 57.702226	
6.12058	 57.729120	
6.15384	 57.799921	
6.1871	 58.007596	
6.22037	 58.054303	
6.25363	 58.155919	
6.2869	 58.280175	
6.32016	 58.275831	
6.35342	 58.281529	
6.38669	 58.291202	
6.41995	 58.315983	
6.45322	 58.276187	
6.48648	 58.295728	
6.51974	 58.283671	
6.55301	 58.296148	
6.58627	 58.282139	
6.61954	 58.293930	
6.6528	 58.353673	
6.68606	 58.415812	
6.71933	 58.531310	
6.75259	 58.489807	
6.78586	 58.518054	
6.81912	 58.668277	
6.85238	 58.688093	
6.88565	 58.776991	
6.91891	 58.928565	
6.95218	 58.993579	
6.98544	 59.153110	
7.0187	 59.191642	
7.05197	 59.175545	
7.08523	 59.441574	
7.1185	 59.365652	
7.15176	 59.315407	
7.18502	 59.477450	
7.21829	 59.481437	
7.25155	 59.538031	
7.28482	 59.790319	
7.31808	 59.728623	
7.35134	 59.798348	
7.38461	 59.798270	
7.41787	 59.874761	
7.45114	 59.908784	
7.4844	 59.933668	
7.51766	 59.930530	
7.55093	 59.944997	
7.58419	 59.947840	
7.61746	 59.920203	
7.65072	 59.940953	
7.68398	 59.938416	
7.71725	 59.898985	
7.75051	 59.886446	
7.78378	 59.893107	
7.81704	 59.913851	
7.8503	 59.929634	
7.88357	 59.910215	
7.91683	 59.912613	
7.9501	 59.923378	
7.98336	 59.959432	
8.01662	 59.975182	
8.04989	 59.998750	
8.08315	 60.022242	
8.11642	 60.019939	
8.14968	 60.007507	
8.18294	 60.019361	
8.21621	 60.030877	
8.24947	 60.017005	
8.28274	 60.031267	
8.316	 60.025613	
8.34926	 60.068507	
8.38253	 60.210159	
8.41579	 60.174824	
8.44906	 60.209556	
8.48232	 60.230333	
8.51558	 60.238931	
8.54885	 60.253460	
8.58211	 60.290152	
8.61538	 60.295050	
8.64864	 60.292451	
8.6819	 60.311091	
8.71517	 60.381083	
8.74843	 60.434839	
8.7817	 60.475085	
8.81496	 60.519910	
8.84822	 60.517268	
8.88149	 60.543719	
8.91475	 60.595293	
8.94802	 60.589010	
8.98128	 60.612754	
9.01454	 60.708325	
9.04781	 60.653236	
9.08107	 60.717331	
9.11434	 60.799479	
9.1476	 60.821823	
9.18086	 60.858116	
9.21413	 60.763727	
9.24739	 60.732361	
9.28066	 60.591025	
9.31392	 60.599595	
9.34718	 60.745852	
9.38045	 60.782226	
9.41371	 60.842929	
9.44698	 60.853910	
9.48024	 60.892953	
9.5135	 60.917285	
9.54677	 60.859747	
9.58003	 60.890187	
9.6133	 60.901060	
9.64656	 60.941609	
9.67982	 60.943182	
9.71309	 61.006172	
9.74635	 60.995864	
9.77962	 61.173557	
9.81288	 61.278173	
9.84614	 61.391222	
9.87941	 61.600741	
9.91267	 61.665256	
9.94594	 61.652580	
9.9792	 61.643223	
10.0125	 61.639219	
10.0457	 61.598660	
10.079	 61.555369	
10.1123	 61.509382	
10.1455	 61.508496	
10.1788	 61.496923	
10.212	 61.497454	
10.2453	 61.439845	
10.2786	 61.432783	
10.3118	 61.395158	
10.3451	 61.346795	
10.3784	 61.261615	
10.4116	 61.314483	
10.4449	 61.274596	
10.4782	 61.181963	
10.5114	 61.213962	
10.5447	 61.150791	
10.578	 61.094324	
10.6112	 61.028148	
10.6445	 60.911518	
10.6777	 60.926652	
10.711	 60.840559	
10.7443	 60.776903	
10.7775	 60.804779	
10.8108	 60.688592	
10.8441	 60.638765	
10.8773	 60.665688	
10.9106	 60.620741	
10.9439	 60.606177	
10.9771	 60.568426	
11.0104	 60.526053	
11.0436	 60.514253	
11.0769	 60.501244	
11.1102	 60.444996	
11.1434	 60.453998	
11.1767	 60.406400	
11.21	 60.350324	
11.2432	 60.324388	
11.2765	 60.335993	
11.3098	 60.306107	
11.343	 60.283604	
11.3763	 60.254982	
11.4096	 60.283000	
11.4428	 60.297261	
